<?xml version="1.0" encoding="utf-8"?>
<!-- Generator: Adobe Illustrator 19.0.1, SVG Export Plug-In . SVG Version: 6.00 Build 0)  -->
<svg version="1.1" id="Capa_1" xmlns="http://www.w3.org/2000/svg" xmlns:xlink="http://www.w3.org/1999/xlink" x="0px" y="0px"
	 viewBox="-26 318 559 158" style="enable-background:new -26 318 559 158;" xml:space="preserve">
<style type="text/css">
	.st0{fill:#2B2831;}
	.st1{fill:url(#SVGID_1_);}
	.st2{fill:#FFFFFF;}
	.st3{fill:#2C2624;}
	.st4{fill:url(#SVGID_2_);}
</style>
<g>
	<g>
		<path class="st0" d="M38.1,341.6c-6.7,0-12.1,8.1-12.1,18c0,8.7,4.2,16,9.7,17.6c0.1,2.3,0.2,5,0.2,8c0,20-3.1,49.1,2.2,49.1
			c5.3,0,2.7-29.1,2.7-49.1c0-3.1,0.1-5.8,0.2-8.2c5.3-1.9,9.3-9,9.3-17.5C50.2,349.7,44.8,341.6,38.1,341.6z"/>
		<path class="st0" d="M64.8,377.8v-49.9c-10.4,6.8-11.3,35.9-9.6,44.3c0.7,3.7,2.7,5.8,4.6,7.1c-0.4,20.1-2.6,48.5,2.3,48.5
			C67.4,427.8,64.8,397.8,64.8,377.8L64.8,377.8z"/>
		<path class="st0" d="M83.7,342.4h-0.8c0,0,1.4,22.7-0.4,22.7s-2-22.7-2-22.7h-0.7c0,0,0.9,23-0.8,23c-1.8,0-0.8-23-0.8-23h-0.7
			c0,0-0.2,22.7-2,22.7s-0.4-22.7-0.4-22.7h-0.8c0,0-4.7,27.8-2.2,30.2s4.3,4.5,4.3,7l0.2,6.4c0,20-3.1,49.1,2.2,49.1
			c5.3,0,2.7-29.1,2.7-49.1l0.1-6.3c0-2.6,1.7-4.7,4.2-7.1C88.4,370.3,83.7,342.4,83.7,342.4z"/>
	</g>
	<g>
		<g>
			
				<linearGradient id="SVGID_1_" gradientUnits="userSpaceOnUse" x1="18.6338" y1="329.9691" x2="98.5756" y2="409.9108" gradientTransform="matrix(1 0 0 -1 0 796)">
				<stop  offset="0" style="stop-color:#7C1E19"/>
				<stop  offset="0.205" style="stop-color:#AB3532"/>
				<stop  offset="0.4022" style="stop-color:#D95153"/>
				<stop  offset="0.5" style="stop-color:#EB5F62"/>
				<stop  offset="0.5978" style="stop-color:#D95153"/>
				<stop  offset="0.795" style="stop-color:#AB3532"/>
				<stop  offset="1" style="stop-color:#7C1E19"/>
			</linearGradient>
			<path class="st1" d="M127.7,426c0-12.3-8.5-22.6-20-25.3c-11.2-10.3-29-16.9-49-16.9s-37.8,6.6-49,16.9
				c-11.6,2.7-20.2,13-20.2,25.4s8.6,22.7,20.2,25.4c11.2,10.3,29,16.9,49,16.9c20.1,0,37.9-6.7,49-16.9
				C119.2,448.6,127.7,438.3,127.7,426z"/>
			<path class="st2" d="M58.7,464.1c-18,0-35.1-5.9-45.8-15.7c-0.4-0.4-0.9-0.6-1.5-0.8c-10.1-2.3-17.2-11.2-17.2-21.7
				c0-10.4,7.1-19.3,17.2-21.7c0.5-0.1,1.1-0.4,1.5-0.8c10.7-9.8,27.8-15.7,45.8-15.7s35.1,5.9,45.8,15.7c0.4,0.4,0.9,0.6,1.4,0.8
				C116,406.8,123,415.7,123,426s-7,19.2-17.1,21.6c-0.5,0.1-1,0.4-1.4,0.8C93.8,458.3,76.7,464.1,58.7,464.1z"/>
		</g>
		<g>
			<g>
				<path class="st3" d="M13.8,412.7H19c0,0.5,0.1,0.8,0.3,1.1l3.4,4.2l3.6-4.3c0.2-0.2,0.3-0.4,0.3-0.5s0.1-0.3,0.1-0.4h4
					c-0.7,1.2-1,2.5-1,3.9v5.3c0,2,0.1,3.4,0.4,4.1h-4.4c0.3-0.7,0.4-2.1,0.4-4.1v-4l-3.5,4.6l-3.5-4.6v4c0,1.7,0.1,3.1,0.4,4.1
					h-4.4c0.3-0.9,0.4-2.3,0.4-4.1v-7.1L13.8,412.7z"/>
				<path class="st3" d="M39.9,420.7c0,0.3,0,0.8-0.1,1.2h-4.9c0.1,0.6,0.4,1.1,0.9,1.5s1,0.6,1.7,0.6c0.5,0,0.9-0.1,1.2-0.2
					c0.4-0.1,0.8-0.3,1.2-0.6l-1.1,2.7c-0.6,0.1-1.2,0.2-1.9,0.2c-1.6,0-3-0.4-4-1.2c-1-0.8-1.5-2-1.5-3.6c0-1.5,0.4-2.6,1.3-3.5
					c0.9-0.9,2-1.3,3.3-1.3c1.1,0,2.1,0.4,2.8,1.1C39.5,418.4,39.9,419.4,39.9,420.7z M36,418.3c-0.4,0-0.7,0.1-0.9,0.4
					c-0.2,0.3-0.3,0.8-0.4,1.4h2.4C37.1,418.9,36.7,418.3,36,418.3z"/>
				<path class="st3" d="M40.7,416.7h3.6v1.7l1.8-1.8c0.4-0.1,0.7-0.1,0.9-0.1c0.8,0,1.5,0.3,2,0.8s0.7,1.3,0.7,2.2v4.2
					c0,0.7,0.1,1.5,0.4,2.3H46c0.3-0.9,0.4-1.7,0.4-2.3V421c0-0.8-0.1-1.4-0.3-1.6c-0.2-0.2-0.5-0.3-0.9-0.3c-0.3,0-0.7,0.1-1,0.3
					v4.2c0,0.7,0.1,1.6,0.4,2.5h-4.1c0.3-0.8,0.4-1.6,0.4-2.2V420v-0.3C41.1,418.6,41,417.6,40.7,416.7z"/>
				<path class="st3" d="M50.9,416.7H55c-0.3,0.8-0.4,1.7-0.4,2.7v3.4c0,0.8,0.3,1.2,1,1.2c0.4,0,0.7-0.1,1.2-0.4v-4.3
					c0-0.8-0.1-1.6-0.4-2.5h4.1c-0.3,0.8-0.4,1.6-0.4,2.3v4.3c0,0.9,0.1,1.8,0.4,2.7h-3.6V425l-1.7,1.3c-0.1,0-0.3,0-0.5,0
					c-0.9,0-1.7-0.3-2.3-0.8c-0.6-0.5-0.9-1.3-0.9-2.4v-4.4C51.4,418.1,51.2,417.4,50.9,416.7z"/>
				<path class="st3" d="M61.4,423.4c0.6,0.3,1,0.5,1.3,0.6s0.6,0.1,0.9,0.1s0.5-0.1,0.8-0.2c0.2-0.1,0.3-0.3,0.3-0.5
					c0-0.3-0.1-0.5-0.4-0.8c-0.3-0.3-0.6-0.5-0.9-0.7c-0.6-0.4-1.1-0.8-1.3-1.2c-0.3-0.3-0.4-0.8-0.4-1.3c0-0.8,0.4-1.5,1.1-2.1
					c0.7-0.6,1.7-0.8,2.8-0.8c0.7,0,1.5,0.1,2.2,0.3v2.2c-0.4-0.2-0.8-0.3-1-0.4s-0.5-0.1-0.8-0.1s-0.6,0.1-0.7,0.2
					c-0.2,0.1-0.2,0.3-0.2,0.5c0,0.3,0.2,0.5,0.6,0.8s0.7,0.5,1,0.8c1,0.7,1.5,1.6,1.5,2.6c0,0.8-0.3,1.5-1,2s-1.6,0.8-2.9,0.8
					c-1.1,0-2-0.1-2.8-0.4L61.4,423.4L61.4,423.4z"/>
				<path class="st3" d="M69.7,426c0.3-1,0.4-1.8,0.4-2.4v-8.4c0-0.8-0.1-1.7-0.4-2.5h8.6l-1.5,2.8c-1.2-0.3-2.2-0.5-3.1-0.5v3.2
					h4.1l-1.4,2.8c-1.1-0.3-2-0.4-2.7-0.4v2.9c0,0.8,0.1,1.6,0.4,2.5H69.7z"/>
				<path class="st3" d="M79.7,419.2l0.6-2.2c0.7-0.2,1.2-0.3,1.6-0.3c0.4-0.1,0.7-0.1,1-0.1c1.1,0,2,0.3,2.7,0.8
					c0.7,0.6,1,1.5,1,2.8v3.7v0.1c0,0.6,0.1,1.3,0.4,2h-3.4v-0.9l-1.5,1c-0.2,0-0.4,0-0.6,0c-0.7,0-1.3-0.2-1.9-0.7
					s-0.8-1.1-0.8-1.9c0-1.4,1.2-2.5,3.6-3.2l1.2-0.4c0-0.4-0.1-0.7-0.4-1c-0.3-0.3-0.7-0.4-1.3-0.4c-0.3,0-0.6,0-0.9,0.1
					C80.6,418.8,80.2,419,79.7,419.2z M81.5,415.6c0.6-0.9,1-1.9,1.3-3.1h3.7c-1,0.9-1.9,1.9-2.7,3.1H81.5z M81.9,422.1
					c-0.2,0.4-0.4,0.7-0.4,1.1c0,0.3,0.1,0.5,0.3,0.7c0.2,0.2,0.4,0.3,0.7,0.3c0.1,0,0.3,0,0.4,0s0.3-0.1,0.6-0.2v-1.8h-1.6V422.1z"
					/>
				<path class="st3" d="M95.5,423.3l-1.2,2.7c-0.5,0.2-1.1,0.2-1.7,0.2c-1.5,0-2.6-0.4-3.6-1.3c-0.9-0.9-1.4-2-1.4-3.5
					c0-1.4,0.5-2.6,1.5-3.5s2.2-1.4,3.8-1.4c0.7,0,1.4,0.1,2.2,0.3l-0.1,2.4c-0.4-0.2-0.8-0.4-1-0.4c-0.2-0.1-0.5-0.1-0.7-0.1
					c-0.7,0-1.2,0.2-1.7,0.7c-0.4,0.5-0.7,1.1-0.7,1.9c0,0.7,0.2,1.4,0.6,1.9c0.4,0.6,1,0.8,1.8,0.8c0.5,0,1-0.1,1.4-0.3
					C95,423.6,95.3,423.4,95.5,423.3z"/>
				<path class="st3" d="M96.2,426c0.3-0.8,0.4-1.5,0.4-2.2v-4.6c0-0.8-0.1-1.7-0.4-2.5h4.1c-0.3,0.8-0.4,1.6-0.4,2.4v5
					c0,0.8,0.1,1.4,0.4,1.9C100.3,426,96.2,426,96.2,426z M96.4,414c0-0.5,0.2-0.9,0.5-1.3c0.3-0.4,0.8-0.6,1.4-0.6
					c0.5,0,1,0.2,1.3,0.5c0.4,0.4,0.6,0.8,0.6,1.3s-0.2,0.9-0.5,1.3c-0.3,0.4-0.8,0.5-1.3,0.5c-0.6,0-1.1-0.2-1.5-0.5
					C96.5,414.9,96.4,414.5,96.4,414z"/>
				<path class="st3" d="M101.5,413.1l4.1-0.4c-0.3,0.7-0.4,1.6-0.4,2.8v8c0,0.8,0.1,1.6,0.4,2.5h-4.1c0.3-0.8,0.4-1.8,0.4-3.2V416
					v-0.4C101.9,414.5,101.8,413.7,101.5,413.1z"/>
			</g>
			<g>
				<path class="st3" d="M17.4,434.4v-2.6c0-0.1,0-0.1,0-0.2s0-0.3,0-0.8c-0.1,0.5-0.2,0.9-0.3,1.1l-0.7,2.4h-0.6l-0.7-2.4l-0.3-1.1
					c0,0.5,0,0.8,0,0.9v2.6h-0.7V430h1.1l0.7,2.4l0.1,0.2l0.1,0.6l0.2-0.7L17,430h1.1v4.3h-0.7V434.4z"/>
				<path class="st3" d="M21.6,434.4l-0.3-1.1h-1.5l-0.3,1.1h-0.8l1.4-4.3h1l1.4,4.3H21.6z M20.5,430.8L20.5,430.8
					c0,0.1-0.1,0.2-0.1,0.3s-0.2,0.6-0.5,1.5H21l-0.4-1.2l-0.1-0.4V430.8z"/>
				<path class="st3" d="M25.3,434.4l-1.7-3.3c0,0.3,0,0.6,0,0.8v2.5h-0.7v-4.3h0.9l1.7,3.3c0-0.3,0-0.6,0-0.8v-2.5h0.7v4.3H25.3z"
					/>
				<path class="st3" d="M29.8,434.4l-0.3-1.1H28l-0.3,1.1h-0.8l1.4-4.3h1l1.4,4.3H29.8z M28.7,430.8L28.7,430.8
					c0,0.1-0.1,0.2-0.1,0.3s-0.2,0.6-0.5,1.5h1.1l-0.4-1.2l-0.1-0.4V430.8z"/>
				<path class="st3" d="M32.9,433.8c0.2,0,0.4,0,0.6-0.1c0.2-0.1,0.4-0.2,0.5-0.3v-0.6h-1v-0.7h1.7v1.6c-0.2,0.2-0.5,0.4-0.8,0.5
					c-0.3,0.1-0.7,0.2-1,0.2c-0.6,0-1.1-0.2-1.5-0.6c-0.3-0.4-0.5-0.9-0.5-1.6c0-0.7,0.2-1.2,0.5-1.6s0.8-0.6,1.5-0.6
					c0.9,0,1.5,0.4,1.7,1.1l-0.7,0.2c-0.1-0.2-0.2-0.4-0.4-0.5c-0.2-0.1-0.4-0.2-0.6-0.2c-0.4,0-0.7,0.1-0.9,0.4
					c-0.2,0.3-0.3,0.6-0.3,1.1s0.1,0.9,0.3,1.1C32.3,433.6,32.5,433.8,32.9,433.8z"/>
				<path class="st3" d="M35.5,434.4v-4.3h3v0.7h-2.2v1.1h2.1v0.7h-2.1v1.1h2.3v0.7H35.5L35.5,434.4z"/>
				<path class="st3" d="M41.9,434.4l-0.9-1.6h-1v1.6h-0.8v-4.3h1.9c0.5,0,0.8,0.1,1.1,0.3c0.3,0.2,0.4,0.5,0.4,0.9
					c0,0.3-0.1,0.6-0.2,0.8s-0.4,0.4-0.6,0.4l1,1.8L41.9,434.4L41.9,434.4z M41.8,431.4c0-0.4-0.2-0.6-0.7-0.6h-1v1.3h1.1
					c0.2,0,0.4-0.1,0.5-0.2C41.8,431.8,41.8,431.6,41.8,431.4z"/>
				<path class="st3" d="M48.3,432.2c0,0.4-0.1,0.8-0.2,1.2s-0.4,0.6-0.7,0.8c-0.3,0.2-0.6,0.3-1,0.3h-1.6v-4.3h1.4
					c0.7,0,1.2,0.2,1.5,0.5C48.1,431,48.3,431.6,48.3,432.2z M47.5,432.2c0-0.5-0.1-0.8-0.3-1.1c-0.2-0.3-0.5-0.4-0.9-0.4h-0.6v2.9
					h0.7c0.3,0,0.6-0.1,0.8-0.4C47.4,433,47.5,432.7,47.5,432.2z"/>
				<path class="st3" d="M48.9,434.4v-4.3h3v0.7h-2.2v1.1h2.1v0.7h-2.1v1.1H52v0.7H48.9L48.9,434.4z"/>
				<path class="st3" d="M57.4,431.5c0,0.3-0.1,0.5-0.2,0.7c-0.1,0.2-0.3,0.4-0.5,0.5c-0.2,0.1-0.5,0.2-0.8,0.2h-1v1.5h-0.8v-4.3H56
					c0.5,0,0.8,0.1,1.1,0.4C57.3,430.7,57.4,431,57.4,431.5z M56.6,431.5c0-0.4-0.2-0.7-0.7-0.7H55v1.4h0.9c0.2,0,0.4-0.1,0.5-0.2
					S56.6,431.7,56.6,431.5z"/>
				<path class="st3" d="M58,434.4v-4.3h3v0.7h-2.2v1.1h2.1v0.7h-2.1v1.1h2.3v0.7H58L58,434.4z"/>
				<path class="st3" d="M65.2,432.2c0,0.4-0.1,0.8-0.2,1.2s-0.4,0.6-0.7,0.8c-0.3,0.2-0.6,0.3-1,0.3h-1.6v-4.3h1.4
					c0.7,0,1.2,0.2,1.5,0.5C65,431,65.2,431.6,65.2,432.2z M64.4,432.2c0-0.5-0.1-0.8-0.3-1.1c-0.2-0.3-0.5-0.4-0.9-0.4h-0.6v2.9
					h0.7c0.3,0,0.6-0.1,0.8-0.4C64.3,433,64.4,432.7,64.4,432.2z"/>
				<path class="st3" d="M65.8,434.4v-4.3h0.8v4.3H65.8z"/>
				<path class="st3" d="M70.8,432.2c0,0.4-0.1,0.8-0.2,1.2s-0.4,0.6-0.7,0.8c-0.3,0.2-0.6,0.3-1,0.3h-1.6v-4.3h1.4
					c0.7,0,1.2,0.2,1.5,0.5C70.7,431,70.8,431.6,70.8,432.2z M70,432.2c0-0.5-0.1-0.8-0.3-1.1c-0.2-0.3-0.5-0.4-0.9-0.4h-0.6v2.9
					h0.7c0.3,0,0.6-0.1,0.8-0.4C69.9,433,70,432.7,70,432.2z"/>
				<path class="st3" d="M75.2,432.2c0,0.4-0.1,0.8-0.2,1.2c-0.2,0.3-0.4,0.6-0.7,0.8c-0.3,0.2-0.6,0.3-1,0.3
					c-0.6,0-1.1-0.2-1.4-0.6s-0.5-0.9-0.5-1.6c0-0.7,0.2-1.2,0.5-1.6c0.3-0.4,0.8-0.6,1.4-0.6s1.1,0.2,1.4,0.6
					C75,431,75.2,431.6,75.2,432.2z M74.4,432.2c0-0.5-0.1-0.8-0.3-1.1c-0.2-0.3-0.5-0.4-0.8-0.4c-0.4,0-0.6,0.1-0.8,0.4
					c-0.2,0.3-0.3,0.6-0.3,1.1s0.1,0.8,0.3,1.1s0.5,0.4,0.8,0.4c0.4,0,0.6-0.1,0.8-0.4C74.3,433,74.4,432.7,74.4,432.2z"/>
				<path class="st3" d="M79,433.2c0,0.4-0.1,0.7-0.4,1c-0.3,0.2-0.7,0.3-1.2,0.3s-0.9-0.1-1.2-0.3c-0.3-0.2-0.5-0.5-0.5-0.9
					l0.8-0.1c0.1,0.2,0.2,0.4,0.3,0.5c0.2,0.1,0.4,0.2,0.6,0.2c0.6,0,0.8-0.2,0.8-0.6c0-0.1,0-0.2-0.1-0.3s-0.2-0.1-0.3-0.2
					c-0.1-0.1-0.3-0.1-0.7-0.2c-0.3-0.1-0.5-0.1-0.6-0.2s-0.2-0.1-0.3-0.2c-0.1-0.1-0.2-0.1-0.2-0.2c-0.1-0.1-0.1-0.2-0.1-0.3
					s-0.1-0.3-0.1-0.4c0-0.4,0.1-0.7,0.4-0.9c0.3-0.2,0.6-0.3,1.1-0.3s0.8,0.1,1.1,0.2c0.2,0.2,0.4,0.4,0.5,0.8l-0.8,0.1
					c0-0.2-0.1-0.3-0.2-0.4c-0.1-0.1-0.3-0.1-0.5-0.1c-0.5,0-0.7,0.2-0.7,0.5c0,0.1,0,0.2,0.1,0.3s0.1,0.1,0.2,0.2
					c0.1,0,0.3,0.1,0.6,0.2c0.4,0.1,0.6,0.2,0.8,0.2c0.2,0.1,0.3,0.2,0.4,0.3s0.2,0.2,0.2,0.4C79,432.8,79,433,79,433.2z"/>
				<path class="st3" d="M83,432.6v1.8h-0.8v-1.8l-1.4-2.5h0.8l0.9,1.8l0.9-1.8h0.8L83,432.6z"/>
				<path class="st3" d="M89.5,434.4v-2.6c0-0.1,0-0.1,0-0.2s0-0.3,0-0.8c-0.1,0.5-0.2,0.9-0.3,1.1l-0.7,2.4h-0.6l-0.7-2.4l-0.3-1.1
					c0,0.5,0,0.8,0,0.9v2.6h-0.7V430h1.1l0.7,2.4l0.1,0.2l0.1,0.6l0.2-0.7l0.7-2.5h1.1v4.3h-0.7V434.4z"/>
				<path class="st3" d="M91,434.4v-4.3h3v0.7h-2.2v1.1h2.1v0.7h-2.1v1.1h2.3v0.7H91L91,434.4z"/>
				<path class="st3" d="M97.1,434.4l-1.7-3.3c0,0.3,0,0.6,0,0.8v2.5h-0.7v-4.3h0.9l1.7,3.3c0-0.3,0-0.6,0-0.8v-2.5H98v4.3H97.1z"/>
				<path class="st3" d="M100.4,434.5c-0.5,0-0.9-0.1-1.2-0.4c-0.3-0.3-0.4-0.7-0.4-1.2v-2.7h0.8v2.6c0,0.3,0.1,0.6,0.2,0.8
					c0.1,0.2,0.4,0.3,0.6,0.3c0.3,0,0.5-0.1,0.7-0.3c0.2-0.2,0.2-0.4,0.2-0.8v-2.6h0.8v2.6c0,0.5-0.2,1-0.5,1.3
					C101.4,434.3,100.9,434.5,100.4,434.5z"/>
				<path class="st3" d="M106,433.2c0,0.4-0.1,0.7-0.4,1c-0.3,0.2-0.7,0.3-1.2,0.3s-0.9-0.1-1.2-0.3c-0.3-0.2-0.5-0.5-0.5-0.9
					l0.8-0.1c0.1,0.2,0.2,0.4,0.3,0.5c0.2,0.1,0.4,0.2,0.6,0.2c0.6,0,0.8-0.2,0.8-0.6c0-0.1,0-0.2-0.1-0.3s-0.2-0.1-0.3-0.2
					c-0.1-0.1-0.3-0.1-0.7-0.2c-0.3-0.1-0.5-0.1-0.6-0.2s-0.2-0.1-0.3-0.2c-0.1-0.1-0.2-0.1-0.2-0.2c-0.1-0.1-0.1-0.2-0.1-0.3
					s-0.1-0.3-0.1-0.4c0-0.4,0.1-0.7,0.4-0.9c0.3-0.2,0.6-0.3,1.1-0.3s0.8,0.1,1.1,0.2c0.2,0.2,0.4,0.4,0.5,0.8l-0.8,0.1
					c0-0.2-0.1-0.3-0.2-0.4c-0.1-0.1-0.3-0.1-0.5-0.1c-0.5,0-0.7,0.2-0.7,0.5c0,0.1,0,0.2,0.1,0.3s0.1,0.1,0.2,0.2
					c0.1,0,0.3,0.1,0.6,0.2c0.4,0.1,0.6,0.2,0.8,0.2c0.2,0.1,0.3,0.2,0.4,0.3c0.1,0.1,0.2,0.2,0.2,0.4C106,432.8,106,433,106,433.2z
					"/>
			</g>
			<g>
				<path class="st0" d="M147.3,374.7H168c0,1.8,0.4,3.3,1.2,4.4l13.4,16.7l14.4-17.3c0.7-0.9,1.1-1.6,1.2-2.1
					c0.2-0.6,0.2-1.1,0.2-1.6h15.9c-2.7,4.9-4,10.1-4,15.7v21.3c0,8,0.6,13.4,1.8,16.2h-17.6c1.2-2.8,1.8-8.2,1.8-16.2V396
					l-13.8,18.4l-14-18.4v15.8c0,6.8,0.6,12.2,1.8,16.2h-17.6c1.2-3.6,1.8-9,1.8-16.2v-28.4L147.3,374.7z"/>
				<path class="st0" d="M251.5,406.9c0,1.4-0.1,3-0.4,4.9h-19.5c0.5,2.4,1.7,4.3,3.5,5.9c1.8,1.6,4.1,2.4,6.9,2.4
					c1.8,0,3.4-0.2,4.9-0.7s3.1-1.2,4.8-2.2l-4.4,10.9c-2.4,0.5-4.9,0.8-7.6,0.8c-6.6,0-11.8-1.6-15.8-4.9c-4-3.3-5.9-8-5.9-14.2
					c0-5.8,1.7-10.5,5.1-14.1c3.4-3.6,7.8-5.4,13.1-5.4c4.5,0,8.2,1.5,11.1,4.4C250.1,397.6,251.5,401.7,251.5,406.9z M235.9,397.4
					c-1.6,0-2.9,0.6-3.7,1.7c-0.8,1.2-1.3,3-1.4,5.5h9.6C240.4,399.8,238.9,397.4,235.9,397.4z"/>
				<path class="st0" d="M254.8,391h14.4v6.8l7.1-7.3c1.5-0.2,2.7-0.3,3.5-0.3c3.4,0,6,1,8,3.1c2,2,3,5,3,8.9v16.7
					c0,2.9,0.6,5.9,1.8,9.1h-16.4c1.2-3.6,1.8-6.6,1.8-9.1v-11c0-3.4-0.4-5.5-1.2-6.4c-0.8-0.9-1.9-1.3-3.5-1.3
					c-1.3,0-2.6,0.4-4,1.1V418c0,2.9,0.6,6.2,1.8,10.1h-16.4c1.2-3.4,1.8-6.2,1.8-8.6v-15.4V403C256.6,398.6,256,394.5,254.8,391z"
					/>
				<path class="st0" d="M295.7,391H312c-1.2,3.2-1.8,6.7-1.8,10.6v13.5c0,3.1,1.3,4.6,4,4.7c1.4,0,3-0.5,4.6-1.6v-17.1
					c0-3.1-0.6-6.5-1.8-10.1h16.4c-1.2,3.1-1.8,6.2-1.8,9.1v17.2c0,3.6,0.6,7.1,1.8,10.6h-14.6v-4.4l-6.9,5.2c-0.5,0-1.2,0.1-2,0.1
					c-3.6,0-6.7-1-9-3.1c-2.4-2.1-3.5-5.2-3.5-9.4v-17.7C297.5,396.2,296.9,393.7,295.7,391z"/>
				<path class="st0" d="M337.4,417.6c2.2,1.3,4,2.2,5.2,2.5c1.3,0.3,2.5,0.5,3.8,0.5c1.2,0,2.2-0.2,3-0.6c0.8-0.5,1.3-1.1,1.3-2.1
					c0-1.1-0.6-2.2-1.7-3.2s-2.4-2-3.7-3c-2.5-1.8-4.3-3.3-5.3-4.6c-1-1.3-1.5-3.1-1.5-5.3c0-3.4,1.4-6.2,4.3-8.4
					c2.9-2.2,6.6-3.3,11.2-3.3c3,0,6,0.4,9,1.3v8.8c-1.7-0.8-3-1.3-4.1-1.6c-1-0.3-2-0.4-3.1-0.4c-1.3,0-2.2,0.2-2.9,0.7
					c-0.7,0.4-1,1-1,1.8c0,1,0.8,2.1,2.4,3.3s2.9,2.2,4,3c3.9,2.9,5.9,6.3,5.9,10.2c0,3.2-1.3,5.9-3.9,8.1
					c-2.6,2.2-6.4,3.3-11.5,3.3c-4.4,0-8.1-0.6-11.2-1.7v-9.3H337.4z"/>
				<path class="st0" d="M370.7,428c1.2-3.9,1.8-7.1,1.8-9.6v-33.6c0-3.3-0.6-6.7-1.8-10.1H405l-6,11.2c-4.8-1.2-8.9-1.8-12.4-1.8
					v12.7h16.2l-5.5,11.1c-4.5-1.2-8.1-1.7-10.6-1.7v11.7c0,3,0.6,6.4,1.8,10.2L370.7,428L370.7,428z"/>
				<path class="st0" d="M410.6,400.8l2.4-9c2.8-0.7,4.9-1.2,6.3-1.4c1.4-0.2,2.8-0.3,4.1-0.3c4.4,0,8,1.1,10.6,3.3
					c2.6,2.2,3.9,5.9,3.9,11.1v14.7v0.5c0,2.3,0.6,5,1.8,8.2h-13.5v-3.4l-6.1,4.1c-0.8,0.1-1.6,0.1-2.3,0.1c-2.8,0-5.4-0.9-7.6-2.8
					s-3.3-4.5-3.3-7.8c0-5.6,4.8-9.8,14.5-12.7l4.6-1.4c0-1.5-0.6-2.8-1.8-4c-1.1-1.1-2.8-1.7-5-1.7c-1.3,0-2.6,0.2-3.8,0.5
					C414.2,399.2,412.6,399.9,410.6,400.8z M417.8,386.6c2.2-3.5,4-7.6,5.2-12.2h14.8c-3.8,3.4-7.4,7.5-10.8,12.2H417.8z
					 M419.4,412.6c-1,1.4-1.4,2.8-1.4,4.2c0,1,0.4,2,1.1,2.9c0.7,0.8,1.7,1.3,3,1.3c0.5,0,1-0.1,1.5-0.2c0.5-0.1,1.3-0.4,2.4-0.8
					v-7.4H419.4z"/>
				<path class="st0" d="M473.6,417.1l-4.8,10.7c-2.2,0.6-4.4,0.9-6.8,0.9c-5.8,0-10.5-1.7-14.3-5.2c-3.7-3.5-5.6-8.1-5.6-13.8
					c0-5.6,2-10.3,5.9-14c3.9-3.7,9-5.6,15.2-5.6c2.8,0,5.7,0.4,8.7,1.3l-0.6,9.5c-1.8-0.9-3.1-1.5-4.1-1.8c-1-0.3-2-0.4-2.9-0.4
					c-2.7,0-4.9,0.9-6.6,2.7c-1.7,1.8-2.6,4.3-2.6,7.5c0,3,0.8,5.5,2.4,7.7c1.6,2.2,4,3.3,7.1,3.3c2.1,0,3.9-0.4,5.4-1.1
					C471.7,418.2,472.8,417.6,473.6,417.1z"/>
				<path class="st0" d="M476.4,428c1.2-3.3,1.8-6.1,1.8-8.6v-18.3c0-3.2-0.6-6.6-1.8-10.1h16.4c-1.2,3.2-1.8,6.4-1.8,9.6v19.8
					c0,3,0.6,5.6,1.8,7.6C492.8,428,476.4,428,476.4,428z M477,380c0-2,0.7-3.7,2-5.2c1.4-1.5,3.2-2.3,5.6-2.3
					c2.1,0,3.9,0.7,5.4,2.2s2.2,3.2,2.2,5.3c0,2-0.7,3.8-2,5.2c-1.3,1.4-3.1,2.1-5.3,2.1c-2.5,0-4.5-0.7-5.9-2.1
					C477.7,383.8,477,382.1,477,380z"/>
				<path class="st0" d="M497.3,376.4l16.4-1.7c-1.2,2.8-1.8,6.5-1.8,11.2v32c0,3.2,0.6,6.5,1.8,10.1h-16.4c1.2-3,1.8-7.2,1.8-12.7
					v-27.2v-1.6C499.1,382.2,498.5,378.8,497.3,376.4z"/>
			</g>
			<g>
				<path class="st0" d="M161.9,461.5v-10.3c0-0.2,0-0.5,0-0.7s0-1.2,0.1-3c-0.5,2.2-0.9,3.7-1.2,4.5l-2.8,9.5h-2.3l-2.8-9.5
					l-1.2-4.5c0.1,1.9,0.1,3.1,0.1,3.7v10.3H149v-17.1h4.3l2.8,9.5l0.2,0.9l0.5,2.3l0.7-2.7l2.8-10h4.3v17.1H161.9z"/>
				<path class="st0" d="M178.7,461.5l-1.4-4.4h-5.9l-1.4,4.4h-3.2l5.6-17.1h3.8l5.6,17.1H178.7z M174.4,447l-0.1,0.3
					c-0.1,0.3-0.2,0.6-0.3,1c-0.1,0.4-0.7,2.4-1.9,6.1h4.4l-1.5-4.9l-0.5-1.6L174.4,447z"/>
				<path class="st0" d="M193.4,461.5l-6.7-13.1c0.1,1.3,0.2,2.3,0.2,3.1v10.1H184v-17.1h3.7l6.8,13.2c-0.1-1.2-0.2-2.3-0.2-3.3
					v-9.9h2.9v17.1h-3.8V461.5z"/>
				<path class="st0" d="M211.1,461.5l-1.4-4.4h-5.9l-1.4,4.4h-3.2l5.6-17.1h3.8l5.6,17.1H211.1z M206.8,447l-0.1,0.3
					c-0.1,0.3-0.2,0.6-0.3,1c-0.1,0.4-0.7,2.4-1.9,6.1h4.4l-1.5-4.9l-0.5-1.6L206.8,447z"/>
				<path class="st0" d="M223.8,458.9c0.8,0,1.7-0.1,2.4-0.4s1.4-0.6,1.8-1v-2.4h-3.8v-2.6h6.7v6.3c-0.8,0.9-1.9,1.7-3.2,2.2
					s-2.7,0.8-4.1,0.8c-2.5,0-4.5-0.8-5.8-2.3c-1.4-1.5-2-3.7-2-6.5s0.7-5,2-6.5c1.4-1.5,3.3-2.2,5.9-2.2c3.6,0,5.9,1.5,6.9,4.4
					l-3,1c-0.3-0.9-0.8-1.5-1.5-2c-0.7-0.4-1.5-0.7-2.4-0.7c-1.5,0-2.7,0.5-3.5,1.5s-1.2,2.5-1.2,4.4s0.4,3.4,1.2,4.5
					C221.2,458.4,222.3,458.9,223.8,458.9z"/>
				<path class="st0" d="M233.9,461.5v-17.1h12.2v2.8h-8.9v4.3h8.3v2.8h-8.3v4.5h9.4v2.8h-12.7V461.5z"/>
				<path class="st0" d="M259.5,461.5L256,455h-3.8v6.5H249v-17.1h7.7c1.8,0,3.3,0.4,4.3,1.3c1,0.9,1.5,2.1,1.5,3.8
					c0,1.2-0.3,2.2-0.9,3.1s-1.4,1.4-2.5,1.7l4.2,7.2H259.5z M259.2,449.6c0-1.6-1-2.5-2.9-2.5h-4.1v5h4.2c0.9,0,1.6-0.2,2.1-0.7
					C258.9,451.1,259.2,450.5,259.2,449.6z"/>
				<path class="st0" d="M285.2,452.8c0,1.8-0.3,3.3-0.9,4.6c-0.6,1.3-1.5,2.3-2.7,3c-1.1,0.7-2.5,1-3.9,1h-6.3v-17.1h5.6
					c2.6,0,4.6,0.7,6,2.2C284.5,448,285.2,450.1,285.2,452.8z M281.9,452.8c0-1.8-0.4-3.2-1.3-4.2s-2.1-1.4-3.7-1.4h-2.3v11.5h2.7
					c1.4,0,2.5-0.5,3.3-1.6C281.5,456.1,281.9,454.6,281.9,452.8z"/>
				<path class="st0" d="M287.6,461.5v-17.1h12.2v2.8h-8.9v4.3h8.3v2.8h-8.3v4.5h9.4v2.8h-12.7V461.5z"/>
				<path class="st0" d="M321.6,449.8c0,1.1-0.2,2.1-0.7,2.9c-0.5,0.9-1.1,1.5-1.9,2s-1.8,0.7-3,0.7h-3.8v6H309v-17.1h6.9
					c1.9,0,3.3,0.5,4.3,1.4C321.1,446.8,321.6,448.1,321.6,449.8z M318.3,449.9c0-1.8-1-2.7-2.9-2.7h-3.3v5.5h3.4
					c0.9,0,1.6-0.2,2.1-0.7S318.3,450.8,318.3,449.9z"/>
				<path class="st0" d="M323.9,461.5v-17.1H336v2.8h-8.9v4.3h8.3v2.8h-8.3v4.5h9.4v2.8h-12.6V461.5z"/>
				<path class="st0" d="M352.6,452.8c0,1.8-0.3,3.3-0.9,4.6c-0.6,1.3-1.5,2.3-2.7,3c-1.1,0.7-2.5,1-3.9,1h-6.3v-17.1h5.6
					c2.6,0,4.6,0.7,6,2.2C351.9,448,352.6,450.1,352.6,452.8z M349.4,452.8c0-1.8-0.4-3.2-1.3-4.2s-2.1-1.4-3.7-1.4h-2.3v11.5h2.7
					c1.4,0,2.5-0.5,3.3-1.6C349,456.1,349.4,454.6,349.4,452.8z"/>
				<path class="st0" d="M355.1,461.5v-17.1h3.2v17.1H355.1z"/>
				<path class="st0" d="M375.1,452.8c0,1.8-0.3,3.3-0.9,4.6c-0.6,1.3-1.5,2.3-2.7,3c-1.1,0.7-2.5,1-3.9,1h-6.3v-17.1h5.6
					c2.6,0,4.6,0.7,6,2.2C374.4,448,375.1,450.1,375.1,452.8z M371.8,452.8c0-1.8-0.4-3.2-1.3-4.2s-2.1-1.4-3.7-1.4h-2.3v11.5h2.7
					c1.4,0,2.5-0.5,3.3-1.6S371.8,454.6,371.8,452.8z"/>
				<path class="st0" d="M392.6,452.9c0,1.8-0.3,3.3-1,4.7c-0.7,1.4-1.5,2.4-2.7,3.1c-1.2,0.7-2.6,1.1-4.1,1.1
					c-2.4,0-4.3-0.8-5.7-2.4c-1.4-1.6-2.1-3.7-2.1-6.5c0-2.7,0.7-4.9,2.1-6.4s3.3-2.3,5.7-2.3s4.4,0.8,5.7,2.3
					C391.9,448,392.6,450.2,392.6,452.9z M389.3,452.9c0-1.8-0.4-3.3-1.2-4.3c-0.8-1-1.9-1.6-3.3-1.6s-2.6,0.5-3.4,1.6
					c-0.8,1-1.2,2.5-1.2,4.3c0,1.9,0.4,3.3,1.2,4.4c0.8,1.1,1.9,1.6,3.3,1.6s2.6-0.5,3.4-1.6C388.9,456.3,389.3,454.8,389.3,452.9z"
					/>
				<path class="st0" d="M407.6,456.6c0,1.7-0.6,2.9-1.7,3.8c-1.1,0.9-2.8,1.3-4.9,1.3c-2,0-3.5-0.4-4.7-1.2
					c-1.2-0.8-1.9-1.9-2.2-3.5l3.1-0.6c0.2,0.9,0.6,1.6,1.2,2c0.6,0.4,1.5,0.6,2.6,0.6c2.3,0,3.4-0.8,3.4-2.3c0-0.5-0.1-0.9-0.4-1.2
					c-0.3-0.3-0.6-0.6-1.1-0.8s-1.4-0.5-2.7-0.8c-1.2-0.3-2-0.5-2.4-0.7c-0.5-0.2-0.9-0.4-1.2-0.6c-0.4-0.2-0.7-0.5-0.9-0.9
					c-0.3-0.3-0.5-0.8-0.6-1.2c-0.1-0.5-0.2-1-0.2-1.6c0-1.5,0.5-2.7,1.6-3.5c1-0.8,2.6-1.2,4.6-1.2c1.9,0,3.4,0.3,4.3,1
					c1,0.7,1.6,1.8,1.9,3.3l-3.1,0.5c-0.2-0.7-0.5-1.3-1-1.7s-1.2-0.6-2.1-0.6c-2,0-2.9,0.7-2.9,2c0,0.4,0.1,0.8,0.3,1.1
					c0.2,0.3,0.5,0.5,0.9,0.7c0.4,0.2,1.2,0.4,2.5,0.7c1.5,0.3,2.5,0.7,3.2,1c0.6,0.3,1.1,0.6,1.5,1s0.7,0.9,0.9,1.4
					C407.5,455.2,407.6,455.9,407.6,456.6z"/>
				<path class="st0" d="M423.5,454.5v7h-3.2v-7l-5.5-10.1h3.4l3.7,7.2l3.8-7.2h3.4L423.5,454.5z"/>
				<path class="st0" d="M449.5,461.5v-10.3c0-0.2,0-0.5,0-0.7s0-1.2,0.1-3c-0.5,2.2-0.9,3.7-1.2,4.5l-2.8,9.5h-2.3l-2.8-9.5
					l-1.2-4.5c0.1,1.9,0.1,3.1,0.1,3.7v10.3h-2.9v-17.1h4.3l2.8,9.5l0.2,0.9l0.5,2.3l0.7-2.7l2.8-10h4.3v17.1H449.5z"/>
				<path class="st0" d="M455.4,461.5v-17.1h12.2v2.8h-8.9v4.3h8.3v2.8h-8.3v4.5h9.4v2.8h-12.7V461.5z"/>
				<path class="st0" d="M479.8,461.5l-6.7-13.1c0.1,1.3,0.2,2.3,0.2,3.1v10.1h-2.9v-17.1h3.7l6.8,13.2c-0.1-1.2-0.2-2.3-0.2-3.3
					v-9.9h2.9v17.1h-3.8V461.5z"/>
				<path class="st0" d="M493.1,461.7c-2.1,0-3.8-0.6-4.9-1.7c-1.1-1.1-1.7-2.8-1.7-4.9v-10.7h3.2v10.4c0,1.3,0.3,2.4,0.9,3.1
					s1.4,1,2.6,1c1.2,0,2-0.4,2.7-1.1s0.9-1.8,0.9-3.1v-10.3h3.2v10.5c0,2.2-0.6,3.8-1.8,5C497,461.1,495.3,461.7,493.1,461.7z"/>
				<path class="st0" d="M515.5,456.6c0,1.7-0.6,2.9-1.7,3.8c-1.1,0.9-2.8,1.3-4.9,1.3c-2,0-3.5-0.4-4.7-1.2
					c-1.2-0.8-1.9-1.9-2.2-3.5l3.1-0.6c0.2,0.9,0.6,1.6,1.2,2c0.6,0.4,1.5,0.6,2.6,0.6c2.3,0,3.4-0.8,3.4-2.3c0-0.5-0.1-0.9-0.4-1.2
					c-0.3-0.3-0.6-0.6-1.1-0.8s-1.4-0.5-2.7-0.8c-1.2-0.3-2-0.5-2.4-0.7c-0.5-0.2-0.9-0.4-1.2-0.6c-0.4-0.2-0.7-0.5-0.9-0.9
					c-0.3-0.3-0.5-0.8-0.6-1.2c-0.1-0.5-0.2-1-0.2-1.6c0-1.5,0.5-2.7,1.6-3.5c1-0.8,2.6-1.2,4.6-1.2c1.9,0,3.4,0.3,4.3,1
					c1,0.7,1.6,1.8,1.9,3.3l-3.1,0.5c-0.2-0.7-0.5-1.3-1-1.7s-1.2-0.6-2.1-0.6c-2,0-2.9,0.7-2.9,2c0,0.4,0.1,0.8,0.3,1.1
					s0.5,0.5,0.9,0.7c0.4,0.2,1.2,0.4,2.5,0.7c1.5,0.3,2.5,0.7,3.2,1c0.6,0.3,1.1,0.6,1.5,1s0.7,0.9,0.9,1.4
					C515.4,455.2,515.5,455.9,515.5,456.6z"/>
			</g>
			
				<linearGradient id="SVGID_2_" gradientUnits="userSpaceOnUse" x1="23.5796" y1="351.2745" x2="93.2204" y2="351.2745" gradientTransform="matrix(1 0 0 -1 0 796)">
				<stop  offset="0" style="stop-color:#7C1E19"/>
				<stop  offset="0.205" style="stop-color:#AB3532"/>
				<stop  offset="0.4022" style="stop-color:#D95153"/>
				<stop  offset="0.5" style="stop-color:#EB5F62"/>
				<stop  offset="0.5978" style="stop-color:#D95153"/>
				<stop  offset="0.795" style="stop-color:#AB3532"/>
				<stop  offset="1" style="stop-color:#7C1E19"/>
			</linearGradient>
			<path class="st4" d="M61.9,446.4c1.6,0.2,3.4,3.9,1.3,3.6c-7.7-1.2-5.4-12.6,2.3-9.8c4.7,1.7,7.6,6.5,12.6,7.4
				c2.7,0.5,6,0.6,8.5-0.6c1.3-0.6,3.1-1.5,3.2-3.2c0.2-4.2-3.3-1.4-3-0.9c1.5,2.3-1.5,2.6-2.7,0.8c-2.3-3.6,1-7,4.8-5.6
				c3,1.1,5.3,5.8,3.9,8.8c-2.1,4.5-8.6,5.3-12.9,4.5c-3-0.6-5.9-1.7-8.3-3.6c-1.4-1.2-2.8-2.7-4.5-3.5c-0.8-0.5-1.7-0.7-2.7-0.8
				C62.5,443.3,61.7,444.3,61.9,446.4L61.9,446.4z M54.9,446.4c-1.6,0.2-3.4,3.9-1.3,3.6c7.7-1.2,5.4-12.6-2.3-9.8
				c-4.7,1.7-7.6,6.5-12.6,7.4c-2.7,0.5-6,0.6-8.5-0.6c-1.3-0.6-3.1-1.5-3.2-3.2c-0.2-4.2,3.3-1.4,3-0.9c-1.5,2.3,1.5,2.6,2.7,0.8
				c2.3-3.6-1-7-4.8-5.6c-3,1.1-5.3,5.8-3.9,8.8c2.1,4.5,8.6,5.3,12.9,4.5c3-0.6,5.9-1.7,8.3-3.6c1.4-1.2,2.8-2.7,4.5-3.5
				c0.8-0.5,1.7-0.7,2.7-0.8C54.3,443.3,55.2,444.3,54.9,446.4L54.9,446.4z"/>
		</g>
	</g>
</g>
</svg>
