<?xml version="1.0" encoding="utf-8"?>
<!-- Generator: Adobe Illustrator 19.0.1, SVG Export Plug-In . SVG Version: 6.00 Build 0)  -->
<svg version="1.1" id="Capa_1" xmlns="http://www.w3.org/2000/svg" xmlns:xlink="http://www.w3.org/1999/xlink" x="0px" y="0px"
	 viewBox="0 0 559 158" style="enable-background:new 0 0 559 158;" xml:space="preserve">
<style type="text/css">
	.st0{fill:#FFFFFF;}
	.st1{fill:url(#SVGID_1_);}
	.st2{fill:#2C2624;}
	.st3{fill:url(#SVGID_2_);}
</style>
<g>
	<g>
		<path class="st0" d="M64.1,23.6c-6.7,0-12.1,8.1-12.1,18c0,8.7,4.2,16,9.7,17.6c0.1,2.3,0.2,5,0.2,8c0,20-3.1,49.1,2.2,49.1
			c5.3,0,2.7-29.1,2.7-49.1c0-3.1,0.1-5.8,0.2-8.2c5.3-1.9,9.3-9,9.3-17.5C76.2,31.7,70.8,23.6,64.1,23.6z"/>
		<path class="st0" d="M90.8,59.8V9.9c-10.4,6.8-11.3,35.9-9.6,44.3c0.7,3.7,2.7,5.8,4.6,7.1c-0.4,20.1-2.6,48.5,2.3,48.5
			C93.4,109.8,90.8,79.8,90.8,59.8L90.8,59.8z"/>
		<path class="st0" d="M109.7,24.4h-0.8c0,0,1.4,22.7-0.4,22.7c-1.8,0-2-22.7-2-22.7h-0.7c0,0,0.9,23-0.8,23c-1.8,0-0.8-23-0.8-23
			h-0.7c0,0-0.2,22.7-2,22.7c-1.8,0-0.4-22.7-0.4-22.7h-0.8c0,0-4.7,27.8-2.2,30.2c2.5,2.4,4.3,4.5,4.3,7l0.2,6.4
			c0,20-3.1,49.1,2.2,49.1c5.3,0,2.7-29.1,2.7-49.1l0.1-6.3c0-2.6,1.7-4.7,4.2-7.1C114.4,52.3,109.7,24.4,109.7,24.4z"/>
	</g>
	<g>
		<g>
			<linearGradient id="SVGID_1_" gradientUnits="userSpaceOnUse" x1="44.6788" y1="147.949" x2="124.5561" y2="68.0717">
				<stop  offset="0" style="stop-color:#7C1E19"/>
				<stop  offset="0.205" style="stop-color:#AB3532"/>
				<stop  offset="0.4022" style="stop-color:#D95153"/>
				<stop  offset="0.5" style="stop-color:#EB5F62"/>
				<stop  offset="0.5978" style="stop-color:#D95153"/>
				<stop  offset="0.795" style="stop-color:#AB3532"/>
				<stop  offset="1" style="stop-color:#7C1E19"/>
			</linearGradient>
			<path class="st1" d="M153.7,108c0-12.3-8.5-22.6-20-25.3c-11.2-10.3-29-16.9-49-16.9c-20,0-37.8,6.6-49,16.9
				c-11.6,2.7-20.2,13-20.2,25.4c0,12.4,8.6,22.7,20.2,25.4c11.2,10.3,29,16.9,49,16.9c20.1,0,37.9-6.7,49-16.9
				C145.2,130.6,153.7,120.3,153.7,108z"/>
			<path class="st0" d="M84.7,146.1c-18,0-35.1-5.9-45.8-15.7c-0.4-0.4-0.9-0.6-1.5-0.8c-10.1-2.3-17.2-11.2-17.2-21.7
				c0-10.4,7.1-19.3,17.2-21.7c0.5-0.1,1.1-0.4,1.5-0.8c10.7-9.8,27.8-15.7,45.8-15.7c18,0,35.1,5.9,45.8,15.7
				c0.4,0.4,0.9,0.6,1.4,0.8C142,88.8,149,97.7,149,108c0,10.3-7,19.2-17.1,21.6c-0.5,0.1-1,0.4-1.4,0.8
				C119.8,140.3,102.7,146.1,84.7,146.1z"/>
		</g>
		<g>
			<g>
				<path class="st2" d="M39.8,94.7h5.2c0,0.5,0.1,0.8,0.3,1.1l3.4,4.2l3.6-4.3c0.2-0.2,0.3-0.4,0.3-0.5c0-0.1,0.1-0.3,0.1-0.4h4
					c-0.7,1.2-1,2.5-1,3.9v5.3c0,2,0.1,3.4,0.4,4.1h-4.4c0.3-0.7,0.4-2.1,0.4-4.1v-4l-3.5,4.6l-3.5-4.6v4c0,1.7,0.1,3.1,0.4,4.1
					h-4.4c0.3-0.9,0.4-2.3,0.4-4.1v-7.1L39.8,94.7z"/>
				<path class="st2" d="M65.9,102.7c0,0.3,0,0.8-0.1,1.2h-4.9c0.1,0.6,0.4,1.1,0.9,1.5c0.5,0.4,1,0.6,1.7,0.6
					c0.5,0,0.9-0.1,1.2-0.2c0.4-0.1,0.8-0.3,1.2-0.6l-1.1,2.7c-0.6,0.1-1.2,0.2-1.9,0.2c-1.6,0-3-0.4-4-1.2c-1-0.8-1.5-2-1.5-3.6
					c0-1.5,0.4-2.6,1.3-3.5c0.9-0.9,2-1.3,3.3-1.3c1.1,0,2.1,0.4,2.8,1.1C65.5,100.4,65.9,101.4,65.9,102.7z M62,100.3
					c-0.4,0-0.7,0.1-0.9,0.4c-0.2,0.3-0.3,0.8-0.4,1.4h2.4C63.1,100.9,62.7,100.3,62,100.3z"/>
				<path class="st2" d="M66.7,98.7h3.6v1.7l1.8-1.8c0.4-0.1,0.7-0.1,0.9-0.1c0.8,0,1.5,0.3,2,0.8c0.5,0.5,0.7,1.3,0.7,2.2v4.2
					c0,0.7,0.1,1.5,0.4,2.3h-4.1c0.3-0.9,0.4-1.7,0.4-2.3V103c0-0.8-0.1-1.4-0.3-1.6c-0.2-0.2-0.5-0.3-0.9-0.3c-0.3,0-0.7,0.1-1,0.3
					v4.2c0,0.7,0.1,1.6,0.4,2.5h-4.1c0.3-0.8,0.4-1.6,0.4-2.2V102v-0.3C67.1,100.6,67,99.6,66.7,98.7z"/>
				<path class="st2" d="M76.9,98.7H81c-0.3,0.8-0.4,1.7-0.4,2.7v3.4c0,0.8,0.3,1.2,1,1.2c0.4,0,0.7-0.1,1.2-0.4v-4.3
					c0-0.8-0.1-1.6-0.4-2.5h4.1c-0.3,0.8-0.4,1.6-0.4,2.3v4.3c0,0.9,0.1,1.8,0.4,2.7h-3.6v-1.1l-1.7,1.3c-0.1,0-0.3,0-0.5,0
					c-0.9,0-1.7-0.3-2.3-0.8c-0.6-0.5-0.9-1.3-0.9-2.4v-4.4C77.4,100.1,77.2,99.4,76.9,98.7z"/>
				<path class="st2" d="M87.4,105.4c0.6,0.3,1,0.5,1.3,0.6c0.3,0.1,0.6,0.1,0.9,0.1c0.3,0,0.5-0.1,0.8-0.2c0.2-0.1,0.3-0.3,0.3-0.5
					c0-0.3-0.1-0.5-0.4-0.8c-0.3-0.3-0.6-0.5-0.9-0.7c-0.6-0.4-1.1-0.8-1.3-1.2c-0.3-0.3-0.4-0.8-0.4-1.3c0-0.8,0.4-1.5,1.1-2.1
					c0.7-0.6,1.7-0.8,2.8-0.8c0.7,0,1.5,0.1,2.2,0.3v2.2c-0.4-0.2-0.8-0.3-1-0.4c-0.2-0.1-0.5-0.1-0.8-0.1c-0.3,0-0.6,0.1-0.7,0.2
					c-0.2,0.1-0.2,0.3-0.2,0.5c0,0.3,0.2,0.5,0.6,0.8c0.4,0.3,0.7,0.5,1,0.8c1,0.7,1.5,1.6,1.5,2.6c0,0.8-0.3,1.5-1,2
					s-1.6,0.8-2.9,0.8c-1.1,0-2-0.1-2.8-0.4V105.4z"/>
				<path class="st2" d="M95.7,108c0.3-1,0.4-1.8,0.4-2.4v-8.4c0-0.8-0.1-1.7-0.4-2.5h8.6l-1.5,2.8c-1.2-0.3-2.2-0.5-3.1-0.5v3.2
					h4.1l-1.4,2.8c-1.1-0.3-2-0.4-2.7-0.4v2.9c0,0.8,0.1,1.6,0.4,2.5H95.7z"/>
				<path class="st2" d="M105.7,101.2l0.6-2.2c0.7-0.2,1.2-0.3,1.6-0.3c0.4-0.1,0.7-0.1,1-0.1c1.1,0,2,0.3,2.7,0.8
					c0.7,0.6,1,1.5,1,2.8v3.7v0.1c0,0.6,0.1,1.3,0.4,2h-3.4v-0.9l-1.5,1c-0.2,0-0.4,0-0.6,0c-0.7,0-1.3-0.2-1.9-0.7
					c-0.6-0.5-0.8-1.1-0.8-1.9c0-1.4,1.2-2.5,3.6-3.2l1.2-0.4c0-0.4-0.1-0.7-0.4-1c-0.3-0.3-0.7-0.4-1.3-0.4c-0.3,0-0.6,0-0.9,0.1
					C106.6,100.8,106.2,101,105.7,101.2z M107.5,97.6c0.6-0.9,1-1.9,1.3-3.1h3.7c-1,0.9-1.9,1.9-2.7,3.1H107.5z M107.9,104.1
					c-0.2,0.4-0.4,0.7-0.4,1.1c0,0.3,0.1,0.5,0.3,0.7c0.2,0.2,0.4,0.3,0.7,0.3c0.1,0,0.3,0,0.4,0c0.1,0,0.3-0.1,0.6-0.2v-1.8H107.9z
					"/>
				<path class="st2" d="M121.5,105.3l-1.2,2.7c-0.5,0.2-1.1,0.2-1.7,0.2c-1.5,0-2.6-0.4-3.6-1.3c-0.9-0.9-1.4-2-1.4-3.5
					c0-1.4,0.5-2.6,1.5-3.5c1-0.9,2.2-1.4,3.8-1.4c0.7,0,1.4,0.1,2.2,0.3l-0.1,2.4c-0.4-0.2-0.8-0.4-1-0.4c-0.2-0.1-0.5-0.1-0.7-0.1
					c-0.7,0-1.2,0.2-1.7,0.7c-0.4,0.5-0.7,1.1-0.7,1.9c0,0.7,0.2,1.4,0.6,1.9c0.4,0.6,1,0.8,1.8,0.8c0.5,0,1-0.1,1.4-0.3
					C121,105.6,121.3,105.4,121.5,105.3z"/>
				<path class="st2" d="M122.2,108c0.3-0.8,0.4-1.5,0.4-2.2v-4.6c0-0.8-0.1-1.7-0.4-2.5h4.1c-0.3,0.8-0.4,1.6-0.4,2.4v5
					c0,0.8,0.1,1.4,0.4,1.9H122.2z M122.4,96c0-0.5,0.2-0.9,0.5-1.3c0.3-0.4,0.8-0.6,1.4-0.6c0.5,0,1,0.2,1.3,0.5
					c0.4,0.4,0.6,0.8,0.6,1.3c0,0.5-0.2,0.9-0.5,1.3c-0.3,0.4-0.8,0.5-1.3,0.5c-0.6,0-1.1-0.2-1.5-0.5
					C122.5,96.9,122.4,96.5,122.4,96z"/>
				<path class="st2" d="M127.5,95.1l4.1-0.4c-0.3,0.7-0.4,1.6-0.4,2.8v8c0,0.8,0.1,1.6,0.4,2.5h-4.1c0.3-0.8,0.4-1.8,0.4-3.2V98
					v-0.4C127.9,96.5,127.8,95.7,127.5,95.1z"/>
			</g>
			<g>
				<path class="st2" d="M43.4,116.4v-2.6c0-0.1,0-0.1,0-0.2c0-0.1,0-0.3,0-0.8c-0.1,0.5-0.2,0.9-0.3,1.1l-0.7,2.4h-0.6l-0.7-2.4
					l-0.3-1.1c0,0.5,0,0.8,0,0.9v2.6h-0.7v-4.3h1.1l0.7,2.4l0.1,0.2l0.1,0.6l0.2-0.7l0.7-2.5h1.1v4.3H43.4z"/>
				<path class="st2" d="M47.6,116.4l-0.3-1.1h-1.5l-0.3,1.1h-0.8l1.4-4.3h1l1.4,4.3H47.6z M46.5,112.8L46.5,112.8
					c0,0.1-0.1,0.2-0.1,0.3c0,0.1-0.2,0.6-0.5,1.5h1.1l-0.4-1.2l-0.1-0.4L46.5,112.8z"/>
				<path class="st2" d="M51.3,116.4l-1.7-3.3c0,0.3,0,0.6,0,0.8v2.5h-0.7v-4.3h0.9l1.7,3.3c0-0.3,0-0.6,0-0.8v-2.5h0.7v4.3H51.3z"
					/>
				<path class="st2" d="M55.8,116.4l-0.3-1.1h-1.5l-0.3,1.1h-0.8l1.4-4.3h1l1.4,4.3H55.8z M54.7,112.8L54.7,112.8
					c0,0.1-0.1,0.2-0.1,0.3c0,0.1-0.2,0.6-0.5,1.5h1.1l-0.4-1.2l-0.1-0.4L54.7,112.8z"/>
				<path class="st2" d="M58.9,115.8c0.2,0,0.4,0,0.6-0.1c0.2-0.1,0.4-0.2,0.5-0.3v-0.6H59v-0.7h1.7v1.6c-0.2,0.2-0.5,0.4-0.8,0.5
					c-0.3,0.1-0.7,0.2-1,0.2c-0.6,0-1.1-0.2-1.5-0.6c-0.3-0.4-0.5-0.9-0.5-1.6c0-0.7,0.2-1.2,0.5-1.6c0.3-0.4,0.8-0.6,1.5-0.6
					c0.9,0,1.5,0.4,1.7,1.1l-0.7,0.2c-0.1-0.2-0.2-0.4-0.4-0.5c-0.2-0.1-0.4-0.2-0.6-0.2c-0.4,0-0.7,0.1-0.9,0.4
					c-0.2,0.3-0.3,0.6-0.3,1.1c0,0.5,0.1,0.9,0.3,1.1C58.3,115.6,58.5,115.8,58.9,115.8z"/>
				<path class="st2" d="M61.5,116.4v-4.3h3v0.7h-2.2v1.1h2.1v0.7h-2.1v1.1h2.3v0.7H61.5z"/>
				<path class="st2" d="M67.9,116.4l-0.9-1.6h-1v1.6h-0.8v-4.3h1.9c0.5,0,0.8,0.1,1.1,0.3c0.3,0.2,0.4,0.5,0.4,0.9
					c0,0.3-0.1,0.6-0.2,0.8s-0.4,0.4-0.6,0.4l1,1.8H67.9z M67.8,113.4c0-0.4-0.2-0.6-0.7-0.6h-1v1.3h1.1c0.2,0,0.4-0.1,0.5-0.2
					S67.8,113.6,67.8,113.4z"/>
				<path class="st2" d="M74.3,114.2c0,0.4-0.1,0.8-0.2,1.2s-0.4,0.6-0.7,0.8c-0.3,0.2-0.6,0.3-1,0.3h-1.6v-4.3h1.4
					c0.7,0,1.2,0.2,1.5,0.5C74.1,113,74.3,113.6,74.3,114.2z M73.5,114.2c0-0.5-0.1-0.8-0.3-1.1s-0.5-0.4-0.9-0.4h-0.6v2.9h0.7
					c0.3,0,0.6-0.1,0.8-0.4C73.4,115,73.5,114.7,73.5,114.2z"/>
				<path class="st2" d="M74.9,116.4v-4.3h3v0.7h-2.2v1.1h2.1v0.7h-2.1v1.1h2.3v0.7H74.9z"/>
				<path class="st2" d="M83.4,113.5c0,0.3-0.1,0.5-0.2,0.7s-0.3,0.4-0.5,0.5c-0.2,0.1-0.5,0.2-0.8,0.2h-1v1.5h-0.8v-4.3H82
					c0.5,0,0.8,0.1,1.1,0.4C83.3,112.7,83.4,113,83.4,113.5z M82.6,113.5c0-0.4-0.2-0.7-0.7-0.7H81v1.4h0.9c0.2,0,0.4-0.1,0.5-0.2
					C82.5,113.9,82.6,113.7,82.6,113.5z"/>
				<path class="st2" d="M84,116.4v-4.3h3v0.7h-2.2v1.1h2.1v0.7h-2.1v1.1h2.3v0.7H84z"/>
				<path class="st2" d="M91.2,114.2c0,0.4-0.1,0.8-0.2,1.2s-0.4,0.6-0.7,0.8c-0.3,0.2-0.6,0.3-1,0.3h-1.6v-4.3h1.4
					c0.7,0,1.2,0.2,1.5,0.5C91,113,91.2,113.6,91.2,114.2z M90.4,114.2c0-0.5-0.1-0.8-0.3-1.1s-0.5-0.4-0.9-0.4h-0.6v2.9h0.7
					c0.3,0,0.6-0.1,0.8-0.4C90.3,115,90.4,114.7,90.4,114.2z"/>
				<path class="st2" d="M91.8,116.4v-4.3h0.8v4.3H91.8z"/>
				<path class="st2" d="M96.8,114.2c0,0.4-0.1,0.8-0.2,1.2s-0.4,0.6-0.7,0.8c-0.3,0.2-0.6,0.3-1,0.3h-1.6v-4.3h1.4
					c0.7,0,1.2,0.2,1.5,0.5C96.7,113,96.8,113.6,96.8,114.2z M96,114.2c0-0.5-0.1-0.8-0.3-1.1s-0.5-0.4-0.9-0.4h-0.6v2.9h0.7
					c0.3,0,0.6-0.1,0.8-0.4C95.9,115,96,114.7,96,114.2z"/>
				<path class="st2" d="M101.2,114.2c0,0.4-0.1,0.8-0.2,1.2c-0.2,0.3-0.4,0.6-0.7,0.8c-0.3,0.2-0.6,0.3-1,0.3
					c-0.6,0-1.1-0.2-1.4-0.6c-0.3-0.4-0.5-0.9-0.5-1.6c0-0.7,0.2-1.2,0.5-1.6c0.3-0.4,0.8-0.6,1.4-0.6s1.1,0.2,1.4,0.6
					C101,113,101.2,113.6,101.2,114.2z M100.4,114.2c0-0.5-0.1-0.8-0.3-1.1c-0.2-0.3-0.5-0.4-0.8-0.4c-0.4,0-0.6,0.1-0.8,0.4
					c-0.2,0.3-0.3,0.6-0.3,1.1c0,0.5,0.1,0.8,0.3,1.1s0.5,0.4,0.8,0.4c0.4,0,0.6-0.1,0.8-0.4S100.4,114.7,100.4,114.2z"/>
				<path class="st2" d="M105,115.2c0,0.4-0.1,0.7-0.4,1c-0.3,0.2-0.7,0.3-1.2,0.3c-0.5,0-0.9-0.1-1.2-0.3c-0.3-0.2-0.5-0.5-0.5-0.9
					l0.8-0.1c0.1,0.2,0.2,0.4,0.3,0.5c0.2,0.1,0.4,0.2,0.6,0.2c0.6,0,0.8-0.2,0.8-0.6c0-0.1,0-0.2-0.1-0.3c-0.1-0.1-0.2-0.1-0.3-0.2
					c-0.1-0.1-0.3-0.1-0.7-0.2c-0.3-0.1-0.5-0.1-0.6-0.2s-0.2-0.1-0.3-0.2c-0.1-0.1-0.2-0.1-0.2-0.2c-0.1-0.1-0.1-0.2-0.1-0.3
					s-0.1-0.3-0.1-0.4c0-0.4,0.1-0.7,0.4-0.9c0.3-0.2,0.6-0.3,1.1-0.3c0.5,0,0.8,0.1,1.1,0.2c0.2,0.2,0.4,0.4,0.5,0.8l-0.8,0.1
					c0-0.2-0.1-0.3-0.2-0.4c-0.1-0.1-0.3-0.1-0.5-0.1c-0.5,0-0.7,0.2-0.7,0.5c0,0.1,0,0.2,0.1,0.3s0.1,0.1,0.2,0.2
					c0.1,0,0.3,0.1,0.6,0.2c0.4,0.1,0.6,0.2,0.8,0.2c0.2,0.1,0.3,0.2,0.4,0.3c0.1,0.1,0.2,0.2,0.2,0.4C105,114.8,105,115,105,115.2z
					"/>
				<path class="st2" d="M109,114.6v1.8h-0.8v-1.8l-1.4-2.5h0.8l0.9,1.8l0.9-1.8h0.8L109,114.6z"/>
				<path class="st2" d="M115.5,116.4v-2.6c0-0.1,0-0.1,0-0.2c0-0.1,0-0.3,0-0.8c-0.1,0.5-0.2,0.9-0.3,1.1l-0.7,2.4h-0.6l-0.7-2.4
					l-0.3-1.1c0,0.5,0,0.8,0,0.9v2.6h-0.7v-4.3h1.1l0.7,2.4l0.1,0.2l0.1,0.6l0.2-0.7l0.7-2.5h1.1v4.3H115.5z"/>
				<path class="st2" d="M117,116.4v-4.3h3v0.7h-2.2v1.1h2.1v0.7h-2.1v1.1h2.3v0.7H117z"/>
				<path class="st2" d="M123.1,116.4l-1.7-3.3c0,0.3,0,0.6,0,0.8v2.5h-0.7v-4.3h0.9l1.7,3.3c0-0.3,0-0.6,0-0.8v-2.5h0.7v4.3H123.1z
					"/>
				<path class="st2" d="M126.4,116.5c-0.5,0-0.9-0.1-1.2-0.4s-0.4-0.7-0.4-1.2v-2.7h0.8v2.6c0,0.3,0.1,0.6,0.2,0.8
					c0.1,0.2,0.4,0.3,0.6,0.3c0.3,0,0.5-0.1,0.7-0.3c0.2-0.2,0.2-0.4,0.2-0.8v-2.6h0.8v2.6c0,0.5-0.2,1-0.5,1.3
					C127.4,116.3,126.9,116.5,126.4,116.5z"/>
				<path class="st2" d="M132,115.2c0,0.4-0.1,0.7-0.4,1c-0.3,0.2-0.7,0.3-1.2,0.3c-0.5,0-0.9-0.1-1.2-0.3c-0.3-0.2-0.5-0.5-0.5-0.9
					l0.8-0.1c0.1,0.2,0.2,0.4,0.3,0.5c0.2,0.1,0.4,0.2,0.6,0.2c0.6,0,0.8-0.2,0.8-0.6c0-0.1,0-0.2-0.1-0.3c-0.1-0.1-0.2-0.1-0.3-0.2
					c-0.1-0.1-0.3-0.1-0.7-0.2c-0.3-0.1-0.5-0.1-0.6-0.2s-0.2-0.1-0.3-0.2c-0.1-0.1-0.2-0.1-0.2-0.2c-0.1-0.1-0.1-0.2-0.1-0.3
					s-0.1-0.3-0.1-0.4c0-0.4,0.1-0.7,0.4-0.9c0.3-0.2,0.6-0.3,1.1-0.3c0.5,0,0.8,0.1,1.1,0.2c0.2,0.2,0.4,0.4,0.5,0.8l-0.8,0.1
					c0-0.2-0.1-0.3-0.2-0.4c-0.1-0.1-0.3-0.1-0.5-0.1c-0.5,0-0.7,0.2-0.7,0.5c0,0.1,0,0.2,0.1,0.3s0.1,0.1,0.2,0.2
					c0.1,0,0.3,0.1,0.6,0.2c0.4,0.1,0.6,0.2,0.8,0.2c0.2,0.1,0.3,0.2,0.4,0.3c0.1,0.1,0.2,0.2,0.2,0.4C132,114.8,132,115,132,115.2z
					"/>
			</g>
			<g>
				<path class="st0" d="M173.3,56.7H194c0,1.8,0.4,3.3,1.2,4.4l13.4,16.7L223,60.5c0.7-0.9,1.1-1.6,1.2-2.1
					c0.2-0.6,0.2-1.1,0.2-1.6h15.9c-2.7,4.9-4,10.1-4,15.7v21.3c0,8,0.6,13.4,1.8,16.2h-17.6c1.2-2.8,1.8-8.2,1.8-16.2V78
					l-13.8,18.4L194.5,78v15.8c0,6.8,0.6,12.2,1.8,16.2h-17.6c1.2-3.6,1.8-9,1.8-16.2V65.4L173.3,56.7z"/>
				<path class="st0" d="M277.5,88.9c0,1.4-0.1,3-0.4,4.9h-19.5c0.5,2.4,1.7,4.3,3.5,5.9c1.8,1.6,4.1,2.4,6.9,2.4
					c1.8,0,3.4-0.2,4.9-0.7c1.5-0.5,3.1-1.2,4.8-2.2l-4.4,10.9c-2.4,0.5-4.9,0.8-7.6,0.8c-6.6,0-11.8-1.6-15.8-4.9
					c-4-3.3-5.9-8-5.9-14.2c0-5.8,1.7-10.5,5.1-14.1c3.4-3.6,7.8-5.4,13.1-5.4c4.5,0,8.2,1.5,11.1,4.4
					C276.1,79.6,277.5,83.7,277.5,88.9z M261.9,79.4c-1.6,0-2.9,0.6-3.7,1.7c-0.8,1.2-1.3,3-1.4,5.5h9.6
					C266.4,81.8,264.9,79.4,261.9,79.4z"/>
				<path class="st0" d="M280.8,73h14.4v6.8l7.1-7.3c1.5-0.2,2.7-0.3,3.5-0.3c3.4,0,6,1,8,3.1c2,2,3,5,3,8.9v16.7
					c0,2.9,0.6,5.9,1.8,9.1h-16.4c1.2-3.6,1.8-6.6,1.8-9.1v-11c0-3.4-0.4-5.5-1.2-6.4c-0.8-0.9-1.9-1.3-3.5-1.3
					c-1.3,0-2.6,0.4-4,1.1v16.7c0,2.9,0.6,6.2,1.8,10.1h-16.4c1.2-3.4,1.8-6.2,1.8-8.6V86.1v-1.1C282.6,80.6,282,76.5,280.8,73z"/>
				<path class="st0" d="M321.7,73H338c-1.2,3.2-1.8,6.7-1.8,10.6v13.5c0,3.1,1.3,4.6,4,4.7c1.4,0,3-0.5,4.6-1.6V83.1
					c0-3.1-0.6-6.5-1.8-10.1h16.4c-1.2,3.1-1.8,6.2-1.8,9.1v17.2c0,3.6,0.6,7.1,1.8,10.6h-14.6v-4.4l-6.9,5.2c-0.5,0-1.2,0.1-2,0.1
					c-3.6,0-6.7-1-9-3.1c-2.4-2.1-3.5-5.2-3.5-9.4V80.6C323.5,78.2,322.9,75.7,321.7,73z"/>
				<path class="st0" d="M363.4,99.6c2.2,1.3,4,2.2,5.2,2.5c1.3,0.3,2.5,0.5,3.8,0.5c1.2,0,2.2-0.2,3-0.6c0.8-0.5,1.3-1.1,1.3-2.1
					c0-1.1-0.6-2.2-1.7-3.2c-1.1-1-2.4-2-3.7-3c-2.5-1.8-4.3-3.3-5.3-4.6c-1-1.3-1.5-3.1-1.5-5.3c0-3.4,1.4-6.2,4.3-8.4
					c2.9-2.2,6.6-3.3,11.2-3.3c3,0,6,0.4,9,1.3v8.8c-1.7-0.8-3-1.3-4.1-1.6c-1-0.3-2-0.4-3.1-0.4c-1.3,0-2.2,0.2-2.9,0.7
					c-0.7,0.4-1,1-1,1.8c0,1,0.8,2.1,2.4,3.3c1.6,1.2,2.9,2.2,4,3c3.9,2.9,5.9,6.3,5.9,10.2c0,3.2-1.3,5.9-3.9,8.1
					c-2.6,2.2-6.4,3.3-11.5,3.3c-4.4,0-8.1-0.6-11.2-1.7V99.6z"/>
				<path class="st0" d="M396.7,110c1.2-3.9,1.8-7.1,1.8-9.6V66.8c0-3.3-0.6-6.7-1.8-10.1H431L425,67.9c-4.8-1.2-8.9-1.8-12.4-1.8
					v12.7h16.2l-5.5,11.1c-4.5-1.2-8.1-1.7-10.6-1.7v11.7c0,3,0.6,6.4,1.8,10.2H396.7z"/>
				<path class="st0" d="M436.6,82.8l2.4-9c2.8-0.7,4.9-1.2,6.3-1.4c1.4-0.2,2.8-0.3,4.1-0.3c4.4,0,8,1.1,10.6,3.3
					c2.6,2.2,3.9,5.9,3.9,11.1v14.7v0.5c0,2.3,0.6,5,1.8,8.2h-13.5v-3.4l-6.1,4.1c-0.8,0.1-1.6,0.1-2.3,0.1c-2.8,0-5.4-0.9-7.6-2.8
					c-2.2-1.9-3.3-4.5-3.3-7.8c0-5.6,4.8-9.8,14.5-12.7l4.6-1.4c0-1.5-0.6-2.8-1.8-4c-1.1-1.1-2.8-1.7-5-1.7c-1.3,0-2.6,0.2-3.8,0.5
					C440.2,81.2,438.6,81.9,436.6,82.8z M443.8,68.6c2.2-3.5,4-7.6,5.2-12.2h14.8c-3.8,3.4-7.4,7.5-10.8,12.2H443.8z M445.4,94.6
					c-1,1.4-1.4,2.8-1.4,4.2c0,1,0.4,2,1.1,2.9c0.7,0.8,1.7,1.3,3,1.3c0.5,0,1-0.1,1.5-0.2c0.5-0.1,1.3-0.4,2.4-0.8v-7.4H445.4z"/>
				<path class="st0" d="M499.6,99.1l-4.8,10.7c-2.2,0.6-4.4,0.9-6.8,0.9c-5.8,0-10.5-1.7-14.3-5.2c-3.7-3.5-5.6-8.1-5.6-13.8
					c0-5.6,2-10.3,5.9-14c3.9-3.7,9-5.6,15.2-5.6c2.8,0,5.7,0.4,8.7,1.3l-0.6,9.5c-1.8-0.9-3.1-1.5-4.1-1.8c-1-0.3-2-0.4-2.9-0.4
					c-2.7,0-4.9,0.9-6.6,2.7c-1.7,1.8-2.6,4.3-2.6,7.5c0,3,0.8,5.5,2.4,7.7c1.6,2.2,4,3.3,7.1,3.3c2.1,0,3.9-0.4,5.4-1.1
					C497.7,100.2,498.8,99.6,499.6,99.1z"/>
				<path class="st0" d="M502.4,110c1.2-3.3,1.8-6.1,1.8-8.6V83.1c0-3.2-0.6-6.6-1.8-10.1h16.4c-1.2,3.2-1.8,6.4-1.8,9.6v19.8
					c0,3,0.6,5.6,1.8,7.6H502.4z M503,62c0-2,0.7-3.7,2-5.2c1.4-1.5,3.2-2.3,5.6-2.3c2.1,0,3.9,0.7,5.4,2.2c1.5,1.5,2.2,3.2,2.2,5.3
					c0,2-0.7,3.8-2,5.2c-1.3,1.4-3.1,2.1-5.3,2.1c-2.5,0-4.5-0.7-5.9-2.1C503.7,65.8,503,64.1,503,62z"/>
				<path class="st0" d="M523.3,58.4l16.4-1.7c-1.2,2.8-1.8,6.5-1.8,11.2v32c0,3.2,0.6,6.5,1.8,10.1h-16.4c1.2-3,1.8-7.2,1.8-12.7
					V70.1v-1.6C525.1,64.2,524.5,60.8,523.3,58.4z"/>
			</g>
			<g>
				<path class="st0" d="M187.9,143.5v-10.3c0-0.2,0-0.5,0-0.7c0-0.2,0-1.2,0.1-3c-0.5,2.2-0.9,3.7-1.2,4.5l-2.8,9.5h-2.3l-2.8-9.5
					l-1.2-4.5c0.1,1.9,0.1,3.1,0.1,3.7v10.3H175v-17.1h4.3l2.8,9.5l0.2,0.9l0.5,2.3l0.7-2.7l2.8-10h4.3v17.1H187.9z"/>
				<path class="st0" d="M204.7,143.5l-1.4-4.4h-5.9l-1.4,4.4h-3.2l5.6-17.1h3.8l5.6,17.1H204.7z M200.4,129l-0.1,0.3
					c-0.1,0.3-0.2,0.6-0.3,1c-0.1,0.4-0.7,2.4-1.9,6.1h4.4l-1.5-4.9l-0.5-1.6L200.4,129z"/>
				<path class="st0" d="M219.4,143.5l-6.7-13.1c0.1,1.3,0.2,2.3,0.2,3.1v10.1H210v-17.1h3.7l6.8,13.2c-0.1-1.2-0.2-2.3-0.2-3.3
					v-9.9h2.9v17.1H219.4z"/>
				<path class="st0" d="M237.1,143.5l-1.4-4.4h-5.9l-1.4,4.4h-3.2l5.6-17.1h3.8l5.6,17.1H237.1z M232.8,129l-0.1,0.3
					c-0.1,0.3-0.2,0.6-0.3,1c-0.1,0.4-0.7,2.4-1.9,6.1h4.4l-1.5-4.9l-0.5-1.6L232.8,129z"/>
				<path class="st0" d="M249.8,140.9c0.8,0,1.7-0.1,2.4-0.4s1.4-0.6,1.8-1v-2.4h-3.8v-2.6h6.7v6.3c-0.8,0.9-1.9,1.7-3.2,2.2
					c-1.3,0.5-2.7,0.8-4.1,0.8c-2.5,0-4.5-0.8-5.8-2.3c-1.4-1.5-2-3.7-2-6.5c0-2.8,0.7-5,2-6.5c1.4-1.5,3.3-2.2,5.9-2.2
					c3.6,0,5.9,1.5,6.9,4.4l-3,1c-0.3-0.9-0.8-1.5-1.5-2c-0.7-0.4-1.5-0.7-2.4-0.7c-1.5,0-2.7,0.5-3.5,1.5c-0.8,1-1.2,2.5-1.2,4.4
					c0,1.9,0.4,3.4,1.2,4.5C247.2,140.4,248.3,140.9,249.8,140.9z"/>
				<path class="st0" d="M259.9,143.5v-17.1h12.2v2.8h-8.9v4.3h8.3v2.8h-8.3v4.5h9.4v2.8H259.9z"/>
				<path class="st0" d="M285.5,143.5L282,137h-3.8v6.5h-3.2v-17.1h7.7c1.8,0,3.3,0.4,4.3,1.3c1,0.9,1.5,2.1,1.5,3.8
					c0,1.2-0.3,2.2-0.9,3.1c-0.6,0.9-1.4,1.4-2.5,1.7l4.2,7.2H285.5z M285.2,131.6c0-1.6-1-2.5-2.9-2.5h-4.1v5h4.2
					c0.9,0,1.6-0.2,2.1-0.7C284.9,133.1,285.2,132.5,285.2,131.6z"/>
				<path class="st0" d="M311.2,134.8c0,1.8-0.3,3.3-0.9,4.6c-0.6,1.3-1.5,2.3-2.7,3c-1.1,0.7-2.5,1-3.9,1h-6.3v-17.1h5.6
					c2.6,0,4.6,0.7,6,2.2C310.5,130,311.2,132.1,311.2,134.8z M307.9,134.8c0-1.8-0.4-3.2-1.3-4.2c-0.9-1-2.1-1.4-3.7-1.4h-2.3v11.5
					h2.7c1.4,0,2.5-0.5,3.3-1.6C307.5,138.1,307.9,136.6,307.9,134.8z"/>
				<path class="st0" d="M313.6,143.5v-17.1h12.2v2.8h-8.9v4.3h8.3v2.8h-8.3v4.5h9.4v2.8H313.6z"/>
				<path class="st0" d="M347.6,131.8c0,1.1-0.2,2.1-0.7,2.9c-0.5,0.9-1.1,1.5-1.9,2c-0.8,0.5-1.8,0.7-3,0.7h-3.8v6h-3.2v-17.1h6.9
					c1.9,0,3.3,0.5,4.3,1.4C347.1,128.8,347.6,130.1,347.6,131.8z M344.3,131.9c0-1.8-1-2.7-2.9-2.7h-3.3v5.5h3.4
					c0.9,0,1.6-0.2,2.1-0.7S344.3,132.8,344.3,131.9z"/>
				<path class="st0" d="M349.9,143.5v-17.1H362v2.8h-8.9v4.3h8.3v2.8h-8.3v4.5h9.4v2.8H349.9z"/>
				<path class="st0" d="M378.6,134.8c0,1.8-0.3,3.3-0.9,4.6c-0.6,1.3-1.5,2.3-2.7,3c-1.1,0.7-2.5,1-3.9,1h-6.3v-17.1h5.6
					c2.6,0,4.6,0.7,6,2.2C377.9,130,378.6,132.1,378.6,134.8z M375.4,134.8c0-1.8-0.4-3.2-1.3-4.2s-2.1-1.4-3.7-1.4h-2.3v11.5h2.7
					c1.4,0,2.5-0.5,3.3-1.6C375,138.1,375.4,136.6,375.4,134.8z"/>
				<path class="st0" d="M381.1,143.5v-17.1h3.2v17.1H381.1z"/>
				<path class="st0" d="M401.1,134.8c0,1.8-0.3,3.3-0.9,4.6c-0.6,1.3-1.5,2.3-2.7,3c-1.1,0.7-2.5,1-3.9,1h-6.3v-17.1h5.6
					c2.6,0,4.6,0.7,6,2.2C400.4,130,401.1,132.1,401.1,134.8z M397.8,134.8c0-1.8-0.4-3.2-1.3-4.2s-2.1-1.4-3.7-1.4h-2.3v11.5h2.7
					c1.4,0,2.5-0.5,3.3-1.6S397.8,136.6,397.8,134.8z"/>
				<path class="st0" d="M418.6,134.9c0,1.8-0.3,3.3-1,4.7s-1.5,2.4-2.7,3.1c-1.2,0.7-2.6,1.1-4.1,1.1c-2.4,0-4.3-0.8-5.7-2.4
					c-1.4-1.6-2.1-3.7-2.1-6.5c0-2.7,0.7-4.9,2.1-6.4c1.4-1.5,3.3-2.3,5.7-2.3s4.4,0.8,5.7,2.3C417.9,130,418.6,132.2,418.6,134.9z
					 M415.3,134.9c0-1.8-0.4-3.3-1.2-4.3c-0.8-1-1.9-1.6-3.3-1.6c-1.4,0-2.6,0.5-3.4,1.6c-0.8,1-1.2,2.5-1.2,4.3
					c0,1.9,0.4,3.3,1.2,4.4c0.8,1.1,1.9,1.6,3.3,1.6c1.4,0,2.6-0.5,3.4-1.6C414.9,138.3,415.3,136.8,415.3,134.9z"/>
				<path class="st0" d="M433.6,138.6c0,1.7-0.6,2.9-1.7,3.8c-1.1,0.9-2.8,1.3-4.9,1.3c-2,0-3.5-0.4-4.7-1.2s-1.9-1.9-2.2-3.5
					l3.1-0.6c0.2,0.9,0.6,1.6,1.2,2c0.6,0.4,1.5,0.6,2.6,0.6c2.3,0,3.4-0.8,3.4-2.3c0-0.5-0.1-0.9-0.4-1.2c-0.3-0.3-0.6-0.6-1.1-0.8
					s-1.4-0.5-2.7-0.8c-1.2-0.3-2-0.5-2.4-0.7c-0.5-0.2-0.9-0.4-1.2-0.6c-0.4-0.2-0.7-0.5-0.9-0.9c-0.3-0.3-0.5-0.8-0.6-1.2
					c-0.1-0.5-0.2-1-0.2-1.6c0-1.5,0.5-2.7,1.6-3.5c1-0.8,2.6-1.2,4.6-1.2c1.9,0,3.4,0.3,4.3,1c1,0.7,1.6,1.8,1.9,3.3l-3.1,0.5
					c-0.2-0.7-0.5-1.3-1-1.7c-0.5-0.4-1.2-0.6-2.1-0.6c-2,0-2.9,0.7-2.9,2c0,0.4,0.1,0.8,0.3,1.1c0.2,0.3,0.5,0.5,0.9,0.7
					c0.4,0.2,1.2,0.4,2.5,0.7c1.5,0.3,2.5,0.7,3.2,1c0.6,0.3,1.1,0.6,1.5,1c0.4,0.4,0.7,0.9,0.9,1.4
					C433.5,137.2,433.6,137.9,433.6,138.6z"/>
				<path class="st0" d="M449.5,136.5v7h-3.2v-7l-5.5-10.1h3.4l3.7,7.2l3.8-7.2h3.4L449.5,136.5z"/>
				<path class="st0" d="M475.5,143.5v-10.3c0-0.2,0-0.5,0-0.7s0-1.2,0.1-3c-0.5,2.2-0.9,3.7-1.2,4.5l-2.8,9.5h-2.3l-2.8-9.5
					l-1.2-4.5c0.1,1.9,0.1,3.1,0.1,3.7v10.3h-2.9v-17.1h4.3l2.8,9.5l0.2,0.9l0.5,2.3l0.7-2.7l2.8-10h4.3v17.1H475.5z"/>
				<path class="st0" d="M481.4,143.5v-17.1h12.2v2.8h-8.9v4.3h8.3v2.8h-8.3v4.5h9.4v2.8H481.4z"/>
				<path class="st0" d="M505.8,143.5l-6.7-13.1c0.1,1.3,0.2,2.3,0.2,3.1v10.1h-2.9v-17.1h3.7l6.8,13.2c-0.1-1.2-0.2-2.3-0.2-3.3
					v-9.9h2.9v17.1H505.8z"/>
				<path class="st0" d="M519.1,143.7c-2.1,0-3.8-0.6-4.9-1.7c-1.1-1.1-1.7-2.8-1.7-4.9v-10.7h3.2v10.4c0,1.3,0.3,2.4,0.9,3.1
					s1.4,1,2.6,1c1.2,0,2-0.4,2.7-1.1s0.9-1.8,0.9-3.1v-10.3h3.2v10.5c0,2.2-0.6,3.8-1.8,5C523,143.1,521.3,143.7,519.1,143.7z"/>
				<path class="st0" d="M541.5,138.6c0,1.7-0.6,2.9-1.7,3.8c-1.1,0.9-2.8,1.3-4.9,1.3c-2,0-3.5-0.4-4.7-1.2s-1.9-1.9-2.2-3.5
					l3.1-0.6c0.2,0.9,0.6,1.6,1.2,2c0.6,0.4,1.5,0.6,2.6,0.6c2.3,0,3.4-0.8,3.4-2.3c0-0.5-0.1-0.9-0.4-1.2c-0.3-0.3-0.6-0.6-1.1-0.8
					s-1.4-0.5-2.7-0.8c-1.2-0.3-2-0.5-2.4-0.7c-0.5-0.2-0.9-0.4-1.2-0.6c-0.4-0.2-0.7-0.5-0.9-0.9c-0.3-0.3-0.5-0.8-0.6-1.2
					c-0.1-0.5-0.2-1-0.2-1.6c0-1.5,0.5-2.7,1.6-3.5c1-0.8,2.6-1.2,4.6-1.2c1.9,0,3.4,0.3,4.3,1c1,0.7,1.6,1.8,1.9,3.3l-3.1,0.5
					c-0.2-0.7-0.5-1.3-1-1.7c-0.5-0.4-1.2-0.6-2.1-0.6c-2,0-2.9,0.7-2.9,2c0,0.4,0.1,0.8,0.3,1.1c0.2,0.3,0.5,0.5,0.9,0.7
					c0.4,0.2,1.2,0.4,2.5,0.7c1.5,0.3,2.5,0.7,3.2,1c0.6,0.3,1.1,0.6,1.5,1c0.4,0.4,0.7,0.9,0.9,1.4
					C541.4,137.2,541.5,137.9,541.5,138.6z"/>
			</g>
			<linearGradient id="SVGID_2_" gradientUnits="userSpaceOnUse" x1="49.6223" y1="126.7378" x2="119.2343" y2="126.7378">
				<stop  offset="0" style="stop-color:#7C1E19"/>
				<stop  offset="0.205" style="stop-color:#AB3532"/>
				<stop  offset="0.4022" style="stop-color:#D95153"/>
				<stop  offset="0.5" style="stop-color:#EB5F62"/>
				<stop  offset="0.5978" style="stop-color:#D95153"/>
				<stop  offset="0.795" style="stop-color:#AB3532"/>
				<stop  offset="1" style="stop-color:#7C1E19"/>
			</linearGradient>
			<path class="st3" d="M87.9,128.4c1.6,0.2,3.4,3.9,1.3,3.6c-7.7-1.2-5.4-12.6,2.3-9.8c4.7,1.7,7.6,6.5,12.6,7.4
				c2.7,0.5,6,0.6,8.5-0.6c1.3-0.6,3.1-1.5,3.2-3.2c0.2-4.2-3.3-1.4-3-0.9c1.5,2.3-1.5,2.6-2.7,0.8c-2.3-3.6,1-7,4.8-5.6
				c3,1.1,5.3,5.8,3.9,8.8c-2.1,4.5-8.6,5.3-12.9,4.5c-3-0.6-5.9-1.7-8.3-3.6c-1.4-1.2-2.8-2.7-4.5-3.5c-0.8-0.5-1.7-0.7-2.7-0.8
				C88.5,125.3,87.7,126.3,87.9,128.4L87.9,128.4z M80.9,128.4c-1.6,0.2-3.4,3.9-1.3,3.6c7.7-1.2,5.4-12.6-2.3-9.8
				c-4.7,1.7-7.6,6.5-12.6,7.4c-2.7,0.5-6,0.6-8.5-0.6c-1.3-0.6-3.1-1.5-3.2-3.2c-0.2-4.2,3.3-1.4,3-0.9c-1.5,2.3,1.5,2.6,2.7,0.8
				c2.3-3.6-1-7-4.8-5.6c-3,1.1-5.3,5.8-3.9,8.8c2.1,4.5,8.6,5.3,12.9,4.5c3-0.6,5.9-1.7,8.3-3.6c1.4-1.2,2.8-2.7,4.5-3.5
				c0.8-0.5,1.7-0.7,2.7-0.8C80.3,125.3,81.2,126.3,80.9,128.4L80.9,128.4z"/>
		</g>
	</g>
</g>
</svg>
